General
Unique ID                                : 226948656047791373338523176545453538022 (0xAABCB8A3FA1274FEFC7A0FA342BAFAE6)
Complete name                            : Dune.Part.Two.2024.2160p.WEB-DL.DDP5.1.Atmos.DV.HDR.H.265-FLUX.mkv
Format                                   : Matroska
Format version                           : Version 4
File size                                : 31.6 GiB
Duration                                 : 2 h 45 min
Overall bit rate                         : 27.3 Mb/s
Encoded date                             : UTC 2024-04-15 10:57:24
Writing application                      : mkvmerge v83.0 ('Circle Of Friends') 64-bit
Writing library                          : libebml v1.4.5 + libmatroska v1.7.1

Video
ID                                       : 1
Format                                   : HEVC
Format/Info                              : High Efficiency Video Coding
Format profile                           : Main 10@L5@High
HDR format                               : SMPTE ST 2094 App 4, Version 1, HDR10+ Profile B compatible
Codec ID                                 : V_MPEGH/ISO/HEVC
Duration                                 : 2 h 45 min
Bit rate                                 : 24.5 Mb/s
Width                                    : 3 840 pixels
Height                                   : 1 606 pixels
Display aspect ratio                     : 2.40:1
Frame rate mode                          : Constant
Frame rate                               : 23.976 (24000/1001) FPS
Color space                              : YUV
Chroma subsampling                       : 4:2:0 (Type 2)
Bit depth                                : 10 bits
Bits/(Pixel*Frame)                       : 0.166
Stream size                              : 28.4 GiB (90%)
Language                                 : English
Default                                  : Yes
Forced                                   : No
Color range                              : Limited
Color primaries                          : BT.2020
Transfer characteristics                 : PQ
Matrix coefficients                      : BT.2020 non-constant
Mastering display color primaries        : BT.2020
Mastering display luminance              : min: 0.0050 cd/m2, max: 1000 cd/m2
Maximum Content Light Level              : 880 cd/m2
Maximum Frame-Average Light Level        : 475 cd/m2

Audio #1
ID                                       : 2
Format                                   : AC-3
Format/Info                              : Audio Coding 3
Commercial name                          : Dolby Digital
Codec ID                                 : A_AC3
Duration                                 : 2 h 45 min
Bit rate mode                            : Constant
Bit rate                                 : 384 kb/s
Channel(s)                               : 6 channels
Channel layout                           : L R C LFE Ls Rs
Sampling rate                            : 48.0 kHz
Frame rate                               : 31.250 FPS (1536 SPF)
Compression mode                         : Lossy
Stream size                              : 455 MiB (1%)
Title                                    : DUB
Language                                 : Russian
Service kind                             : Complete Main
Default                                  : Yes
Forced                                   : No

Audio #2
ID                                       : 3
Format                                   : E-AC-3
Format/Info                              : Enhanced AC-3
Commercial name                          : Dolby Digital Plus
Codec ID                                 : A_EAC3
Duration                                 : 2 h 45 min
Bit rate mode                            : Constant
Bit rate                                 : 384 kb/s
Channel(s)                               : 6 channels
Channel layout                           : L R C LFE Ls Rs
Sampling rate                            : 48.0 kHz
Frame rate                               : 31.250 FPS (1536 SPF)
Compression mode                         : Lossy
Stream size                              : 455 MiB (1%)
Title                                    : DUB
Language                                 : Russian
Service kind                             : Complete Main
Default                                  : No
Forced                                   : No

Audio #3
ID                                       : 4
Format                                   : AC-3
Format/Info                              : Audio Coding 3
Commercial name                          : Dolby Digital
Codec ID                                 : A_AC3
Duration                                 : 2 h 45 min
Bit rate mode                            : Constant
Bit rate                                 : 320 kb/s
Channel(s)                               : 2 channels
Channel layout                           : L R
Sampling rate                            : 48.0 kHz
Frame rate                               : 31.250 FPS (1536 SPF)
Compression mode                         : Lossy
Stream size                              : 379 MiB (1%)
Title                                    : MVO, Jaskier
Language                                 : Russian
Service kind                             : Complete Main
Default                                  : No
Forced                                   : No

Audio #4
ID                                       : 5
Format                                   : AC-3
Format/Info                              : Audio Coding 3
Commercial name                          : Dolby Digital
Codec ID                                 : A_AC3
Duration                                 : 2 h 45 min
Bit rate mode                            : Constant
Bit rate                                 : 320 kb/s
Channel(s)                               : 2 channels
Channel layout                           : L R
Sampling rate                            : 48.0 kHz
Frame rate                               : 31.250 FPS (1536 SPF)
Compression mode                         : Lossy
Stream size                              : 379 MiB (1%)
Title                                    : AVO, Ю.Сербин
Language                                 : Russian
Service kind                             : Complete Main
Default                                  : No
Forced                                   : No

Audio #5
ID                                       : 6
Format                                   : AC-3
Format/Info                              : Audio Coding 3
Commercial name                          : Dolby Digital
Codec ID                                 : A_AC3
Duration                                 : 2 h 45 min
Bit rate mode                            : Constant
Bit rate                                 : 320 kb/s
Channel(s)                               : 2 channels
Channel layout                           : L R
Sampling rate                            : 48.0 kHz
Frame rate                               : 31.250 FPS (1536 SPF)
Compression mode                         : Lossy
Stream size                              : 379 MiB (1%)
Title                                    : AVO, М.Яроцкий
Language                                 : Russian
Service kind                             : Complete Main
Default                                  : No
Forced                                   : No

Audio #6
ID                                       : 7
Format                                   : AC-3
Format/Info                              : Audio Coding 3
Commercial name                          : Dolby Digital
Codec ID                                 : A_AC3
Duration                                 : 2 h 45 min
Bit rate mode                            : Constant
Bit rate                                 : 320 kb/s
Channel(s)                               : 2 channels
Channel layout                           : L R
Sampling rate                            : 48.0 kHz
Frame rate                               : 31.250 FPS (1536 SPF)
Compression mode                         : Lossy
Stream size                              : 379 MiB (1%)
Title                                    : MVO
Language                                 : Ukrainian
Service kind                             : Complete Main
Default                                  : No
Forced                                   : No

Audio #7
ID                                       : 8
Format                                   : E-AC-3 JOC
Format/Info                              : Enhanced AC-3 with Joint Object Coding
Commercial name                          : Dolby Digital Plus with Dolby Atmos
Codec ID                                 : A_EAC3
Duration                                 : 2 h 45 min
Bit rate mode                            : Constant
Bit rate                                 : 768 kb/s
Channel(s)                               : 6 channels
Channel layout                           : L R C LFE Ls Rs
Sampling rate                            : 48.0 kHz
Frame rate                               : 31.250 FPS (1536 SPF)
Compression mode                         : Lossy
Stream size                              : 911 MiB (3%)
Language                                 : English
Service kind                             : Complete Main
Default                                  : No
Forced                                   : No
Complexity index                         : 16
Number of dynamic objects                : 15
Bed channel count                        : 1 channel
Bed channel configuration                : LFE

Text #1
ID                                       : 9
Format                                   : UTF-8
Codec ID                                 : S_TEXT/UTF8
Codec ID/Info                            : UTF-8 Plain Text
Duration                                 : 2 h 39 min
Bit rate                                 : 7 b/s
Count of elements                        : 214
Stream size                              : 8.53 KiB (0%)
Title                                    : Forced
Language                                 : Russian
Default                                  : Yes
Forced                                   : Yes

Text #2
ID                                       : 10
Format                                   : UTF-8
Codec ID                                 : S_TEXT/UTF8
Codec ID/Info                            : UTF-8 Plain Text
Duration                                 : 2 h 45 min
Bit rate                                 : 46 b/s
Count of elements                        : 1331
Stream size                              : 56.4 KiB (0%)
Language                                 : Russian
Default                                  : No
Forced                                   : No

Text #3
ID                                       : 11
Format                                   : UTF-8
Codec ID                                 : S_TEXT/UTF8
Codec ID/Info                            : UTF-8 Plain Text
Duration                                 : 2 h 21 min
Bit rate                                 : 4 b/s
Count of elements                        : 196
Stream size                              : 5.01 KiB (0%)
Title                                    : Forced
Language                                 : English
Default                                  : No
Forced                                   : Yes

Text #4
ID                                       : 12
Format                                   : UTF-8
Codec ID                                 : S_TEXT/UTF8
Codec ID/Info                            : UTF-8 Plain Text
Duration                                 : 2 h 35 min
Bit rate                                 : 27 b/s
Count of elements                        : 1081
Stream size                              : 31.7 KiB (0%)
Language                                 : English
Default                                  : No
Forced                                   : No

Text #5
ID                                       : 13
Format                                   : UTF-8
Codec ID                                 : S_TEXT/UTF8
Codec ID/Info                            : UTF-8 Plain Text
Duration                                 : 2 h 37 min
Bit rate                                 : 41 b/s
Count of elements                        : 1729
Stream size                              : 48.2 KiB (0%)
Title                                    : SDH
Language                                 : English
Default                                  : No
Forced                                   : No

Menu
00:00:00.000                             : en:Chapter 01
00:09:15.221                             : en:Chapter 02
00:21:29.914                             : en:Chapter 03
00:29:31.021                             : en:Chapter 04
00:40:08.908                             : en:Chapter 05
00:50:40.915                             : en:Chapter 06
01:00:34.134                             : en:Chapter 07
01:09:54.527                             : en:Chapter 08
01:19:40.488                             : en:Chapter 09
01:30:39.939                             : en:Chapter 10
01:39:06.071                             : en:Chapter 11
01:49:35.867                             : en:Chapter 12
01:59:40.430                             : en:Chapter 13
02:10:24.616                             : en:Chapter 14
02:18:50.288                             : en:Chapter 15
02:24:19.242                             : en:Chapter 16
02:37:45.799                             : en:Chapter 17
